<?xml version="1.0" encoding="UTF-8" standalone="no"?>
<!-- Created with Inkscape (http://www.inkscape.org/) -->

<svg
   width="297.06339mm"
   height="298.53558mm"
   viewBox="0 0 297.06339 298.53558"
   version="1.1"
   id="svg1"
   xml:space="preserve"
   xmlns="http://www.w3.org/2000/svg"
   xmlns:svg="http://www.w3.org/2000/svg"><defs
     id="defs1" /><g
     id="layer1"
     transform="translate(43.500931,1.4203314)"><path
       style="fill:#000000"
       d="M -43.500931,147.84744 V -1.4203313 H 105.03078 253.56248 V 147.84744 297.11522 H 105.03078 -43.500931 Z m 64.597381,31.5042 c 1.556724,-0.7103 2.27892,-1.81838 2.242838,-3.4412 -0.03314,-1.49032 -0.940794,-2.6092 -3.056539,-3.76785 -1.486971,-0.8143 -2.158376,-1.86444 -1.71924,-2.68904 0.573126,-1.0762 1.228921,-1.34113 3.323589,-1.34266 2.031688,-0.001 2.061733,-0.0127 2.152246,-0.80324 0.08676,-0.75779 0.02317,-0.80488 -1.160404,-0.85924 -3.867038,-0.17758 -5.7434,0.60226 -6.350753,2.63947 -0.577029,1.9355 -9.4e-5,3.05167 2.36477,4.57502 2.224142,1.4327 2.680322,2.27226 1.891792,3.48167 -0.600465,0.92097 -1.517921,1.14437 -3.814494,0.92885 -1.674041,-0.15709 -1.85638,-0.11931 -2.026702,0.41999 -0.102938,0.32593 -0.142605,0.62897 -0.08815,0.67341 1.121064,0.91488 4.4265,1.01277 6.241044,0.18482 z m 10.625151,0.17117 c 1.278324,-0.53676 2.722561,-2.26134 3.112508,-3.71666 0.360727,-1.34628 0.135348,-3.27046 -0.496594,-4.23971 -1.331153,-2.04166 -5.86101,-1.99235 -7.695467,0.0838 -1.350518,1.52844 -1.861574,5.12645 -0.920033,6.47735 1.158204,1.66176 3.865464,2.29135 5.999586,1.39524 z m -3.185996,-1.35738 c -1.933451,-0.78287 -1.574784,-4.81475 0.54378,-6.11281 1.221696,-0.74853 1.992155,-0.74496 2.95187,0.0137 0.650271,0.51404 0.764213,0.82956 0.763291,2.11366 -0.0013,1.78276 -0.723261,3.16283 -2.002388,3.82757 -0.971022,0.50462 -1.336979,0.53023 -2.256553,0.15789 z m 9.630325,1.45414 c 0.172742,-0.28088 2.752528,-13.13571 2.752528,-13.71558 0,-0.14998 -0.436506,-0.27269 -0.970013,-0.27269 h -0.970014 l -0.480347,2.40519 c -0.619188,3.10041 -1.81812,9.37894 -2.059842,10.78693 -0.182216,1.06138 -0.162419,1.09327 0.678637,1.09327 0.47648,0 0.948553,-0.1337 1.049051,-0.29712 z m 8.950576,-0.30711 0.764376,-0.60424 v 0.60424 c 0,0.46768 0.183902,0.60423 0.813729,0.60423 h 0.813729 l 0.930019,-4.71005 c 0.511511,-2.59052 0.89597,-4.74244 0.854352,-4.78203 -0.04162,-0.0396 -0.467304,-0.11754 -0.945971,-0.17322 l -0.870303,-0.10124 -0.594554,2.91539 c -0.327005,1.60346 -0.752287,3.20384 -0.945073,3.55639 -0.511483,0.93538 -1.50963,1.54553 -2.528316,1.54553 -1.741593,0 -1.89528,-0.75939 -1.032532,-5.10192 0.28671,-1.44312 0.466902,-2.72225 0.400428,-2.84251 -0.06647,-0.12026 -0.442319,-0.21865 -0.835212,-0.21865 -0.87247,0 -1.096166,0.48598 -1.744518,3.79 -0.659186,3.35923 -0.595073,4.29061 0.364651,5.29731 0.665108,0.69766 1.018363,0.825 2.288663,0.825 1.080422,0 1.716758,-0.16964 2.266532,-0.60423 z m 12.025696,-0.34991 c 0.08947,-0.78248 0.05695,-0.80306 -1.015353,-0.6424 -1.541545,0.23097 -3.039758,-0.57555 -3.390514,-1.8252 -0.364938,-1.30016 0.43945,-3.35785 1.652594,-4.22746 0.687918,-0.49312 1.32304,-0.65965 2.51579,-0.65965 1.421448,0 1.605435,-0.0698 1.686092,-0.63935 0.07475,-0.52788 -0.08997,-0.67339 -0.944764,-0.83454 -3.939642,-0.74275 -7.42816,2.35995 -6.986275,6.2136 0.293785,2.56209 1.625863,3.59452 4.504341,3.49111 1.82618,-0.0656 1.888572,-0.0932 1.978089,-0.87611 z m 4.740958,-3.1274 c 1.048568,-5.3114 1.046873,-5.53923 -0.0412,-5.53923 -0.660437,0 -0.899041,0.155 -1.00979,0.65596 -0.581885,2.63213 -1.606646,8.03439 -1.606646,8.46981 0,0.42428 0.190312,0.51346 0.940321,0.44059 l 0.94032,-0.0914 z m 9.220643,3.5066 c 2.041424,-1.04662 3.120691,-3.23676 2.837826,-5.75877 -0.281178,-2.50697 -1.958739,-3.74692 -4.75412,-3.51396 -2.990861,0.24926 -5.009882,2.48452 -5.023894,5.56196 -0.01244,2.73151 1.538563,4.28267 4.284176,4.28462 0.956729,6.8e-4 1.956867,-0.2154 2.656012,-0.57385 z m -3.663958,-1.17632 c -2.076599,-0.84083 -1.444708,-5.11698 0.922991,-6.24609 2.802327,-1.33638 4.533119,1.15338 3.063359,4.40667 -0.795232,1.76024 -2.37809,2.49061 -3.98635,1.83942 z m 10.014246,0.36646 c 0.159709,-0.76165 0.446777,-2.19544 0.637929,-3.18621 0.446709,-2.31537 1.568984,-3.59207 3.157585,-3.59207 2.114633,0 2.179594,0.66658 0.731599,7.50712 -0.122227,0.57742 -0.02256,0.65596 0.832306,0.65596 h 0.971159 l 0.629923,-3.01697 c 0.820242,-3.92849 0.808686,-4.90474 -0.07021,-5.93158 -0.622004,-0.72671 -0.893779,-0.81799 -2.435401,-0.81799 -1.24553,0 -1.89359,0.14399 -2.296244,0.51019 -0.687412,0.62518 -0.950442,0.64536 -0.950442,0.0729 0,-0.28495 -0.283959,-0.43731 -0.815021,-0.43731 h -0.81502 l -0.819122,4.44596 c -0.450517,2.44528 -0.880997,4.60996 -0.956623,4.81039 -0.09385,0.24874 0.187036,0.36442 0.884851,0.36442 0.985492,0 1.032821,-0.0499 1.312732,-1.3848 z m 16.414778,1.20784 c 0.252383,-0.0973 0.458878,-0.50321 0.458878,-0.90197 0,-0.70171 -0.0463,-0.71861 -1.4404,-0.52593 -2.445619,0.33803 -4.071519,-0.52692 -4.071519,-2.16597 0,-0.57518 0.156472,-0.60225 3.481212,-0.60225 h 3.481212 v -1.84045 c 0,-1.62854 -0.09186,-1.92827 -0.797778,-2.60306 -0.993961,-0.95013 -2.025199,-1.2174 -3.714744,-0.96278 -3.267301,0.49239 -5.504397,4.81453 -3.972932,7.67583 0.818521,1.52928 1.953224,2.09941 4.182738,2.10162 1.06395,0.001 2.14095,-0.0777 2.393333,-0.17504 z m -4.76294,-5.82746 c 0,-0.49599 1.255604,-1.83601 2.017549,-2.15318 1.151581,-0.47937 2.155005,-0.19479 2.574332,0.7301 0.678275,1.49602 0.544186,1.59673 -2.126022,1.59673 -1.356222,0 -2.465859,-0.0781 -2.465859,-0.17365 z m 12.699151,5.42012 c 2.09404,-1.28306 1.93102,-3.2356 -0.40003,-4.79099 -1.93657,-1.29219 -2.18996,-1.81054 -1.25639,-2.57025 0.55809,-0.45415 0.96273,-0.53068 2.04386,-0.38655 1.22292,0.16303 1.36367,0.11952 1.51678,-0.46887 0.0928,-0.35672 0.0978,-0.7199 0.011,-0.80708 -0.0867,-0.0872 -1.05109,-0.1585 -2.14298,-0.1585 -2.31319,0 -3.44886,0.63078 -3.884585,2.1576 -0.318155,1.11484 0.268374,2.07517 1.989605,3.2576 1.54631,1.06227 1.76445,1.57005 1.00316,2.33511 -0.54988,0.5526 -0.82372,0.60339 -2.33005,0.43212 -1.039805,-0.11822 -1.706945,-0.0838 -1.706945,0.0881 0,0.15519 -0.07486,0.47821 -0.166351,0.71782 -0.355519,0.93106 3.868646,1.08493 5.322876,0.19389 z m 17.32162,0.21988 c 0.4724,-1.40919 0.39131,-1.47951 -1.62794,-1.41174 -2.5291,0.0849 -3.90229,-0.4829 -4.46994,-1.84821 -0.66683,-1.60387 -0.53479,-3.38574 0.38151,-5.14844 1.09452,-2.10553 2.69795,-2.9574 5.65135,-3.00246 2.03853,-0.0311 2.10041,-0.0535 2.10041,-0.76089 0,-0.70906 -0.063,-0.73133 -2.32081,-0.82044 -2.86054,-0.1129 -4.02663,0.2145 -5.60757,1.57443 -2.19211,1.88566 -3.28914,5.06637 -2.65853,7.70808 0.69119,2.89546 2.45383,4.05714 6.17197,4.06769 1.55214,0.004 2.29556,-0.10745 2.37955,-0.35802 z m 8.93914,-0.0295 c 2.20476,-0.92577 3.40682,-3.45437 3.01998,-6.35273 -0.34097,-2.55476 -2.93527,-3.7647 -6.05683,-2.82482 -2.92342,0.88022 -4.64345,5.47792 -2.96929,7.93704 1.06006,1.5571 3.87001,2.13747 6.00614,1.24051 z m -3.66273,-1.65952 c -1.06243,-0.83985 -1.25707,-2.23714 -0.53891,-3.8687 0.6934,-1.57533 1.77988,-2.36522 3.19775,-2.32483 1.33681,0.0381 2.07792,0.91469 2.07792,2.45782 0,3.25036 -2.67848,5.36278 -4.73676,3.73571 z m 10.5291,-0.20602 c 0.58479,-3.64501 0.83058,-4.35236 1.79598,-5.16872 0.67489,-0.57069 1.164,-0.74292 1.92332,-0.67724 1.52248,0.13168 1.69853,0.64893 1.23978,3.64267 -0.75455,4.92405 -0.77943,4.46271 0.24068,4.46271 0.49612,0 0.90204,-0.0457 0.90204,-0.1016 0,-0.0559 0.32636,-1.58447 0.72525,-3.39686 0.39889,-1.81239 0.72525,-3.53569 0.72525,-3.82956 0,-0.29388 -0.36323,-0.94287 -0.80719,-1.4422 -1.06167,-1.19411 -2.89733,-1.44343 -4.48715,-0.60946 -0.85105,0.44643 -1.08788,0.48231 -1.08788,0.16479 0,-0.2535 -0.31581,-0.40588 -0.84118,-0.40588 -0.80839,0 -0.85918,0.0824 -1.30275,2.11365 -0.60427,2.76717 -1.33717,6.68188 -1.33723,7.1427 -3e-5,0.21921 0.38819,0.36442 0.97426,0.36442 h 0.97432 z m 12.47419,-1.82212 0.73508,-3.93577 1.45051,-0.14577 c 1.23038,-0.12365 1.46457,-0.24531 1.5432,-0.80173 0.0732,-0.51765 -0.0492,-0.6568 -0.5802,-0.65994 -0.3701,-0.002 -0.97632,-0.0856 -1.34717,-0.18544 -0.55757,-0.15004 -0.64204,-0.31335 -0.48803,-0.94352 0.36573,-1.49654 0.93302,-2.03455 2.24579,-2.12989 1.02941,-0.0748 1.25289,-0.20009 1.33002,-0.74583 0.0875,-0.61921 -0.007,-0.65596 -1.6904,-0.65596 -1.57761,0 -1.87931,0.0967 -2.61799,0.83903 -0.46772,0.47004 -0.98338,1.43165 -1.17253,2.18654 -0.21876,0.8731 -0.50424,1.36314 -0.81087,1.39192 -0.26028,0.0244 -0.65612,0.0579 -0.87965,0.0743 -0.35606,0.0262 -0.81877,0.76968 -0.87865,1.41187 -0.0112,0.12026 0.43325,0.21865 0.98771,0.21865 1.1532,0 1.14429,-0.33235 0.1191,4.44288 -0.77174,3.59471 -0.75252,3.77727 0.386,3.66579 l 0.933,-0.0914 z m 6.85574,-0.65596 0.87666,-4.7375 -0.84312,-0.0934 c -0.46371,-0.0514 -0.89548,-0.0408 -0.95949,0.0235 -0.14116,0.14186 -1.85855,8.59978 -1.85855,9.15312 0,0.24863 0.34861,0.39182 0.95392,0.39182 h 0.95393 z m 7.18486,4.13327 0.76438,-0.60424 v 0.60424 c 0,0.47013 0.18374,0.60423 0.82788,0.60423 0.82561,0 0.82958,-0.009 1.4505,-3.32339 0.78264,-4.17746 0.77955,-4.316 -0.12011,-5.39048 -0.87411,-1.04397 -2.09374,-1.34658 -4.30712,-1.06866 -1.39977,0.17575 -1.57687,0.27724 -1.71134,0.98063 -0.0825,0.43153 -0.12888,0.80312 -0.10308,0.82576 0.0258,0.0226 0.7421,-0.10368 1.59179,-0.28072 1.86991,-0.38962 3.04284,0.0888 3.18438,1.29879 0.0857,0.73309 0.041,0.75285 -2.06944,0.91325 -3.29913,0.25075 -4.83558,1.31915 -4.83558,3.3625 0,0.69217 0.2478,1.22697 0.84799,1.83013 0.70846,0.71198 1.08387,0.85219 2.28168,0.85219 1.01116,0 1.65897,-0.17807 2.19807,-0.60423 z m -2.8144,-1.28469 c -1.30148,-1.30793 0.40306,-2.76928 3.2357,-2.77407 0.86238,-0.001 0.94222,0.0665 0.76834,0.65434 -0.52424,1.77227 -3.02985,3.09874 -4.00404,2.11973 z m 9.961,1.31013 c 0,-0.57714 0.003,-0.57714 0.94283,-0.001 2.24544,1.37586 5.34989,0.38425 6.65836,-2.12677 0.83563,-1.60364 0.90392,-4.38937 0.13645,-5.56649 -1.02407,-1.57067 -3.40516,-2.06971 -5.0542,-1.05929 -1.09263,0.66949 -1.07011,0.7526 -0.51272,-1.89191 0.62376,-2.95939 0.60639,-3.06105 -0.52299,-3.06105 h -0.96318 l -1.25477,6.77827 c -0.69013,3.72805 -1.31502,6.94227 -1.38867,7.1427 -0.0915,0.24905 0.19738,0.36442 0.9125,0.36442 0.85041,0 1.04639,-0.1084 1.04639,-0.57879 z m 1.58237,-1.59449 c -2.00826,-2.01821 0.59931,-6.98512 3.15455,-6.00881 1.02238,0.39064 1.45191,1.11249 1.45176,2.43974 -3.9e-4,3.24991 -2.78046,5.40397 -4.60631,3.56907 z m 11.07959,-4.0948 c 1.75412,-8.92724 1.69517,-8.01731 0.5194,-8.01731 -0.54842,0 -0.99802,0.0984 -0.99912,0.21865 -10e-4,0.12026 -0.58856,3.16516 -1.30546,6.76644 -0.71689,3.60128 -1.30345,6.72541 -1.30345,6.94251 0,0.26972 0.2986,0.3658 0.94283,0.30338 l 0.94283,-0.0914 z m 8.98399,6.04497 c 0.17794,-0.11781 0.41866,-0.52036 0.53493,-0.89456 0.20858,-0.67127 0.19004,-0.67768 -1.38738,-0.47961 -1.99776,0.25084 -3.4732,-0.19819 -3.9249,-1.19448 -0.68375,-1.50811 -0.59363,-1.5565 3.06333,-1.64495 l 3.39618,-0.0821 0.22835,-1.1068 c 0.46694,-2.26321 -0.95738,-3.98183 -3.48346,-4.20322 -3.551,-0.31121 -6.4751,3.85919 -5.15027,7.3454 0.70031,1.84282 1.81409,2.47354 4.36899,2.4741 1.11689,2.4e-4 2.17629,-0.0959 2.35423,-0.21374 z m -4.38748,-6.47734 c 1.19723,-2.32666 4.49911,-2.13039 4.49911,0.26744 0,0.56154 -0.16717,0.60224 -2.47331,0.60224 h -2.47331 z m 12.28976,6.28501 c 1.31586,-0.68383 1.91773,-2.6847 1.12995,-3.75647 -0.19944,-0.27134 -1.01535,-0.92144 -1.81313,-1.44466 -0.9237,-0.60582 -1.45051,-1.15846 -1.45051,-1.52165 0,-0.82779 1.22382,-1.36355 2.65939,-1.16423 1.05452,0.14642 1.23386,0.0888 1.40447,-0.45144 0.10757,-0.3406 0.11748,-0.69777 0.022,-0.79371 -0.0955,-0.0959 -1.07595,-0.18443 -2.17887,-0.19668 -1.60688,-0.0178 -2.16847,0.0995 -2.82647,0.5906 -1.87412,1.39874 -1.52426,3.25337 0.91583,4.85487 1.59744,1.04844 1.87886,1.6438 1.13185,2.39451 -0.38559,0.3875 -0.88913,0.47671 -2.25686,0.39981 -1.53563,-0.0863 -1.77421,-0.0289 -1.86752,0.44917 -0.0588,0.30148 0.069,0.66025 0.28419,0.79727 0.63427,0.40395 3.97426,0.29546 4.84566,-0.15739 z M 65.577042,167.67207 c 0.220619,-0.41427 0.220619,-0.75188 0,-1.16615 -0.400422,-0.75191 -1.624103,-0.76352 -2.0205,-0.0192 -0.388385,0.7293 -0.383759,0.76827 0.155565,1.31027 0.628515,0.63163 1.492864,0.57372 1.864935,-0.12495 z m 92.107068,-0.58308 c 0,-0.84348 -0.11593,-1.0369 -0.6687,-1.11565 -0.80934,-0.1153 -1.50706,0.41103 -1.50706,1.13686 0,0.63685 0.79013,1.1663 1.59555,1.06916 0.45643,-0.055 0.58021,-0.28767 0.58021,-1.09037 z M 61.080477,149.79657 c 2.490976,-1.11604 4.243657,-3.68302 4.658022,-6.82213 l 0.197541,-1.49652 -15.772427,-0.11616 c -15.322514,-0.11285 -15.834492,-0.1348 -17.948185,-0.76947 -2.686142,-0.80655 -4.088131,-1.62254 -5.905341,-3.43703 -5.170301,-5.16256 -5.289859,-16.22472 -0.237572,-21.98139 1.258976,-1.4345 3.585113,-2.81659 6.142913,-3.64985 1.403117,-0.4571 3.222532,-0.53957 15.085252,-0.68377 15.04022,-0.18283 14.315937,-0.081 16.303551,-2.29196 1.095689,-1.21881 1.895688,-3.24881 2.033683,-5.16049 l 0.08418,-1.16615 -17.40606,0.0145 -17.406059,0.0145 -2.776217,0.75709 c -8.528528,2.32579 -14.409043,8.33377 -16.277742,16.63057 -0.8435,3.74503 -0.84535,9.5175 -0.0042,13.25092 2.275496,10.10029 10.090219,16.50681 21.029086,17.23968 1.62846,0.1091 8.378472,0.19593 15.000028,0.19294 10.917147,-0.005 12.14734,-0.0539 13.199595,-0.52532 z m 49.027063,-0.12306 c 11.71108,-2.68408 18.02512,-9.88081 18.86731,-21.50492 0.63998,-8.83335 -2.58913,-16.63015 -8.68642,-20.97361 -3.32709,-2.37009 -6.29887,-3.605 -10.72785,-4.4579 -2.32755,-0.44822 -4.67618,-0.50957 -19.615055,-0.51231 l -16.970908,-0.003 -0.07494,23.7604 c -0.04122,13.06822 -0.0089,23.93439 0.07191,24.14706 0.120428,0.31709 3.239835,0.36472 17.335948,0.26473 16.042145,-0.11379 17.363315,-0.16186 19.800005,-0.72033 z m -26.764412,-23.44928 0.07513,-15.25642 11.023838,0.016 c 11.904954,0.0173 12.572304,0.0882 16.260254,1.7273 1.84196,0.81864 4.23212,2.97206 5.2653,4.74379 2.38836,4.09563 2.71397,10.81232 0.76183,15.71502 -0.92612,2.32588 -3.28634,4.95763 -5.51041,6.14435 -3.42818,1.8292 -4.04164,1.90483 -16.561998,2.04176 l -11.389064,0.12457 z m 56.875112,19.65533 c 5.10955,-8.61095 19.53216,-32.57585 20.36164,-33.83331 l 0.82712,-1.25386 0.49789,0.81656 c 0.27385,0.4491 2.94505,4.81792 5.93602,9.70848 2.99096,4.89056 5.69533,9.3183 6.00971,9.83943 l 0.5716,0.9475 h -9.60198 c -7.91451,0 -9.60199,0.0699 -9.60199,0.39751 0,2.87311 1.81965,6.15522 4.01515,7.24215 1.31258,0.64981 1.62514,0.67181 10.79441,0.75979 l 9.44268,0.0906 2.00067,3.40786 c 1.10037,1.87433 2.45047,4.09663 3.00021,4.93844 l 0.99953,1.53058 h 5.47084 c 3.00897,0 5.47085,-0.0651 5.47085,-0.14458 0,-0.16919 -4.17425,-7.14235 -7.44207,-12.43213 -1.25197,-2.02662 -2.66349,-4.32249 -3.13671,-5.10192 -0.47322,-0.77943 -1.4647,-2.40109 -2.2033,-3.60369 -0.7386,-1.20259 -2.97902,-4.87598 -4.97871,-8.16308 -1.99969,-3.2871 -5.25093,-8.63033 -7.22498,-11.87385 -1.97405,-3.24352 -3.81636,-6.16256 -4.09402,-6.48674 -0.47343,-0.55276 -0.84507,-0.58942 -5.97463,-0.58942 -4.84627,0 -5.52056,0.0582 -5.91514,0.51019 -0.24494,0.28061 -1.61821,2.47808 -3.05172,4.88328 -1.4335,2.40519 -4.27751,7.12811 -6.32001,10.49539 -2.0425,3.36727 -6.32319,10.45166 -9.51266,15.74308 -3.18946,5.29143 -6.69255,11.07342 -7.78465,12.84887 -1.0921,1.77546 -1.98564,3.38256 -1.98564,3.57135 0,0.25091 1.44001,0.34325 5.35263,0.34325 h 5.35263 z"
       id="path1" /></g></svg>
