<?xml version="1.0" encoding="UTF-8" standalone="no"?>
<!-- Created with Inkscape (http://www.inkscape.org/) -->

<svg
   width="270.93332mm"
   height="270.93332mm"
   viewBox="0 0 270.93332 270.93332"
   version="1.1"
   id="svg1"
   xml:space="preserve"
   xmlns="http://www.w3.org/2000/svg"
   xmlns:svg="http://www.w3.org/2000/svg"><defs
     id="defs1" /><g
     id="layer1"
     transform="translate(30.556223,-9.8393935)"><path
       style="fill:#000000"
       d="m -30.556224,145.30605 c 0,-45.15555 0,-90.311105 0,-135.4666568 90.311108,0 180.622214,0 270.933324,0 0,90.3111068 0,180.6222068 0,270.9333168 -90.31111,0 -180.622216,0 -270.933324,0 0,-45.15555 0,-90.31111 0,-135.46666 z M 131.36788,213.9748 c -4.31216,-8.02937 -8.4734,-16.53581 -13.553,-24.05492 -7.13105,-1.56341 -15.345,-1.70534 -21.954019,-5.79394 -4.227177,-2.1505 -7.075349,-6.98872 -5.186647,-11.70007 -7.127918,5.90973 -12.825749,16.32638 -7.455583,25.188 7.989456,12.26162 23.965729,15.26472 37.586119,16.4237 3.41681,0.0725 7.56517,0.57531 10.56313,-0.0628 z M 75.357833,186.92073 c 1.373773,-14.13768 14.34402,-23.26351 25.761997,-29.71992 16.85559,-8.94121 35.45027,-13.9385 54.06551,-17.69395 5.09256,-3.08008 -0.20424,-8.65474 -1.17888,-12.68428 -2.98643,-5.98638 -4.24289,-13.15193 -8.48248,-18.30283 -6.87083,-0.72333 -13.84608,2.37046 -20.63781,3.66752 -20.03887,5.51348 -41.080322,12.38901 -55.889648,27.69482 -5.995392,6.63519 -8.135986,16.17893 -4.605804,24.53504 2.813552,8.51299 6.742052,17.34791 10.610101,24.94931 0.567759,-0.46925 0.100615,-1.76921 0.357014,-2.44571 z M 58.35688,142.64664 c 0.347296,-3.25105 2.521349,-6.80786 3.486753,-8.21164 0.235891,-0.95195 4.065546,-5.77535 6.780303,-7.97656 19.631508,-16.28292 45.411374,-22.24473 69.998134,-26.496476 5.88852,-1.187991 12.2138,-1.190357 17.87805,-2.762944 4.58658,-3.577786 -1.00788,-9.045925 -1.8631,-13.251658 -2.57934,-4.78092 -3.27803,-11.138084 -7.18427,-14.863312 -7.59105,-1.383373 -15.6204,1.366779 -23.31988,2.043284 -22.81328,4.206255 -46.557594,9.753542 -65.371095,24.028406 -8.603598,6.26254 -14.260573,17.53738 -10.254559,28.04328 2.378011,7.41891 5.666303,15.16109 9.149637,21.75777 0.682777,-0.25441 0.340684,-1.73174 0.700027,-2.31015 z"
       id="path1" /></g></svg>
