<?xml version="1.0" encoding="UTF-8" standalone="no"?>
<!-- Created with Inkscape (http://www.inkscape.org/) -->

<svg
   width="349.53073mm"
   height="89.027367mm"
   viewBox="0 0 349.53073 89.027367"
   version="1.1"
   id="svg1"
   xml:space="preserve"
   xmlns="http://www.w3.org/2000/svg"
   xmlns:svg="http://www.w3.org/2000/svg"><defs
     id="defs1" /><g
     id="layer1"
     transform="translate(72.601227,-91.811065)"><path
       style="fill:#000000"
       d="m -72.601222,136.32475 3e-6,-44.513688 173.339009,0.03353 173.33901,0.03353 1.42635,0.03981 1.42635,0.03981 v 44.440338 44.44035 H 102.16414 -72.601226 Z m 348.555782,0 0.0761,-43.487014 H 102.31527 -71.400089 v 43.560594 43.5606 l 173.639299,-0.0736 173.63929,-0.0736 z m -344.351808,-0.072 V 95.454426 l 27.250785,0.09167 27.250784,0.09166 2.852699,0.638497 2.8526989,0.6385 2.252131,0.75531 2.2521309,0.75531 2.4022731,1.19383 2.402273,1.193827 2.402273,1.5683 2.402273,1.5683 1.8304698,1.57502 1.8304698,1.57501 1.8891125,2.03578 1.889111,2.03578 1.414876,2.05334 1.414876,2.05335 1.223705,2.20002 1.223704,2.20002 1.090887,3.08002 1.090886,3.08003 0.583552,3.32917 0.583553,3.32918 v 4.04585 4.04585 l -0.618584,3.03839 -0.618584,3.03839 -1.034121,3.03436 -1.034122,3.03435 -1.105764,1.95235 -1.105763,1.95235 -1.793836,2.64002 -1.793835,2.64002 -3.3317955,3.22669 -3.3317946,3.2267 -2.5507745,1.65041 -2.5507745,1.65041 -1.90218201,0.93303 -1.90218209,0.93302 -2.3017958,0.88116 -2.3017957,0.88116 -3.1529833,0.77415 -3.152983,0.77414 -27.400926,0.10091 -27.400927,0.10091 z m 45.898037,31.89896 0.297429,-1.54001 0.767533,-4.69337 0.767532,-4.69337 0.912624,-5.72004 0.912623,-5.72005 0.616054,-3.66669 0.616053,-3.6667 0.277517,-1.76001 0.277516,-1.76002 0.253677,-1.51161 0.253677,-1.51162 -2.052548,-1.94844 -2.052548,-1.94844 -0.006,-1.23331 -0.006,-1.23332 -0.402824,-2.42002 -0.402823,-2.42002 h 0.183726 0.183726 l 2.101876,0.43491 2.101877,0.43491 5.330043,0.005 5.3300427,0.005 v -2.93336 -2.93335 h -5.5638187 -5.563819 l -1.784579,0.88 -1.784578,0.88001 h -0.281668 -0.281668 l 0.419007,-1.54001 0.419008,-1.54001 0.454665,-3.16345 0.454666,-3.16344 v -1.8966 -1.89659 h -3.152984 -3.152983 l 0.0024,1.54001 0.0024,1.54001 0.443272,3.47143 0.443271,3.47143 0.322913,1.22194 0.322913,1.22194 0.15778,0.52958 0.15778,0.52957 -2.13312,-1.04936 -2.13312,-1.04937 -5.624707,0.0798 -5.624708,0.0798 v 2.78668 2.78669 l 6.061332,0.0793 6.061333,0.0794 1.55241,-0.57622 1.55241,-0.57622 -0.168522,1.23021 -0.168521,1.23021 -0.195704,2.64002 -0.195704,2.64002 -1.989888,1.90668 -1.989887,1.90669 0.06642,0.20831 0.06642,0.20831 0.901801,5.6584 0.901801,5.6584 1.054035,6.38005 1.054036,6.38005 1.049319,6.38005 1.049319,6.38005 0.0017,0.22001 0.0017,0.22 h 0.128853 0.128853 z m 24.8233213,8.25009 1.1966896,-0.62331 3.1463432,-2.09004 3.1463434,-2.09004 3.6123145,-3.52003 3.612313,-3.52003 2.017633,-2.78669 2.017634,-2.78668 1.032482,-1.90669 1.032482,-1.90668 1.220158,-2.96175 1.220158,-2.96176 0.735815,-2.68587 0.735815,-2.68588 0.36317,-3.44099 0.363169,-3.44098 -0.171269,-4.11149 -0.171269,-4.11149 -0.46777,-2.54122 -0.46777,-2.54123 -0.921615,-2.73881 -0.921615,-2.73882 -1.753151,-3.52003 -1.753151,-3.52002 -2.132294,-2.93336 -2.132294,-2.93336 -3.057238,-3.0107 -3.057239,-3.010697 -2.6486545,-1.77212 -2.6486538,-1.772118 V 95.608311 95.477757 H 139.09908 272.72552 v 40.773653 40.77366 H 136.92647 1.1274207 Z m 81.0052647,-15.94589 2.935837,-0.43228 1.868709,-0.46542 1.868708,-0.46542 2.026918,-0.904 2.026918,-0.90401 V 145.90609 134.5274 l -1.276207,-0.16704 -1.276208,-0.16703 -7.507103,0.0757 -7.507103,0.0757 -0.09713,1.76002 -0.09713,1.76001 0.196101,1.83335 0.196101,1.83334 h 4.180077 4.180077 v 5.26874 5.26874 l -1.126065,0.29386 -1.126066,0.29386 -2.402273,0.19247 -2.402273,0.19247 -2.252131,-0.33703 -2.252131,-0.33704 -2.208383,-1.01807 -2.208383,-1.01807 -1.709288,-1.70642 -1.709287,-1.70643 -0.843086,-1.73942 -0.843086,-1.73942 -0.569287,-2.17438 -0.569286,-2.17439 v -2.67232 -2.67233 l 0.608165,-2.14385 0.608164,-2.14386 0.861633,-1.66361 0.861632,-1.66362 1.249045,-1.38309 1.249044,-1.3831 2.374915,-1.16117 2.374915,-1.16118 2.338276,-0.5114 2.338275,-0.51141 3.626503,0.31649 3.626503,0.31649 2.251613,0.75917 2.251613,0.75917 h 0.292663 0.292663 l 0.944029,-3.01291 0.944028,-3.0129 0.199831,-0.50871 0.199832,-0.5087 -1.636168,-0.73173 -1.636167,-0.73173 -2.319531,-0.57951 -2.319531,-0.5795 -3.509082,-0.1898 -3.509083,-0.18979 -3.002841,0.47262 -3.002842,0.47262 -2.402273,0.83493 -2.402273,0.83492 -1.050994,0.52966 -1.050994,0.52965 -1.351279,0.89991 -1.351279,0.89991 -1.463891,1.33219 -1.463891,1.33219 -1.320751,1.80687 -1.320751,1.80686 -1.011232,2.15317 -1.011232,2.15316 -0.677489,2.89028 -0.67749,2.89027 0.176768,3.56311 0.176768,3.56311 0.34232,1.61335 0.342319,1.61334 0.599576,1.61335 0.599576,1.61335 1.087222,2.02189 1.087222,2.0219 2.117336,2.12223 2.117336,2.12223 1.88272,1.18361 1.88272,1.18361 2.600335,0.91913 2.600335,0.91914 2.573622,0.39319 2.573622,0.39318 2.402273,0.0316 2.402273,0.0316 z m 32.107805,-0.43645 1.71211,-0.62602 1.48412,-1.30347 1.48412,-1.30347 0.18197,0.46322 0.18197,0.46323 0.005,0.78268 0.005,0.78268 0.2399,0.36913 0.23989,0.36913 1.03171,0.0567 1.03172,0.0567 3.18774,-0.0592 3.18773,-0.0592 -0.28425,-1.24668 -0.28425,-1.24667 -0.2118,-11.44009 -0.2118,-11.44009 -0.56814,-1.32001 -0.56813,-1.32001 -0.45049,-0.73334 -0.45048,-0.73334 -1.0725,-1.12572 -1.07249,-1.12572 -1.759,-0.87448 -1.759,-0.87448 -2.29484,-0.4434 -2.29483,-0.4434 -2.52299,0.17539 -2.52299,0.17538 -2.40399,0.59959 -2.404,0.5996 -1.938,0.85839 -1.938,0.8584 0.22862,0.51689 0.22861,0.51689 0.74668,2.49335 0.74667,2.49335 0.0904,0.10388 0.0905,0.10389 1.59526,-0.75638 1.59527,-0.75638 1.94434,-0.48138 1.94434,-0.48138 2.25964,0.13194 2.25964,0.13194 1.20113,0.60735 1.20114,0.60735 0.51433,0.86138 0.51433,0.86138 0.19481,1.19006 0.1948,1.19006 -2.96127,0.17654 -2.96126,0.17655 -2.55242,0.56578 -2.55241,0.56578 -1.95185,0.85878 -1.95185,0.85877 -1.56731,1.3812 -1.56731,1.38121 -0.9851,1.95472 -0.985109,1.95473 v 2.64619 2.64619 l 0.812129,1.61532 0.81213,1.61532 1.28986,1.27413 1.28986,1.27414 0.90085,0.45801 0.90086,0.458 1.35128,0.38619 1.35127,0.38618 2.55242,-0.11671 2.55241,-0.11671 z m -4.24317,-6.38832 -1.02965,-0.51288 -0.62192,-0.82873 -0.62191,-0.82872 0.0209,-1.39774 0.0209,-1.39774 0.7032,-1.11146 0.70319,-1.11147 1.57731,-0.70541 1.57731,-0.7054 2.50312,-0.28114 2.50313,-0.28114 0.67564,-0.002 0.67564,-0.002 v 2.65171 2.6517 l -0.5874,1.12476 -0.5874,1.12476 -0.92335,0.75897 -0.92334,0.75896 -1.11674,0.30297 -1.11674,0.30298 -1.20114,0.001 -1.20114,10e-4 z m 80.45055,6.52825 1.92007,-0.48602 1.16899,-0.58258 1.16898,-0.58257 -0.20131,-0.49496 -0.20132,-0.49496 -0.64691,-2.86419 -0.64691,-2.86419 -0.45289,0.1989 -0.45289,0.19889 -2.09954,0.71612 -2.09954,0.71611 -2.30497,-0.12537 -2.30497,-0.12536 -1.95171,-0.93859 -1.95171,-0.93859 -1.07383,-1.58037 -1.07384,-1.58037 -0.48273,-2.00655 -0.48273,-2.00655 0.16803,-1.76001 0.16803,-1.76001 0.4614,-1.49692 0.46139,-1.49692 0.98848,-1.22024 0.98848,-1.22023 1.10408,-0.73289 1.10409,-0.73288 1.88714,-0.47228 1.88715,-0.47227 1.82205,0.1662 1.82205,0.16621 1.72753,0.6314 1.72753,0.6314 0.0752,-0.10199 0.0752,-0.10198 0.76748,-2.78669 0.76748,-2.78669 0.20296,-0.47074 0.20297,-0.47075 -1.59188,-0.67185 -1.59189,-0.67185 -2.81172,-0.45136 -2.81171,-0.45137 -2.51121,0.35468 -2.51122,0.35469 -1.94573,0.58707 -1.94574,0.58707 -2.26799,1.48182 -2.26798,1.48182 -1.37217,1.6455 -1.37218,1.64551 -0.77361,1.48491 -0.77362,1.48492 -0.54899,2.05335 -0.54899,2.05335 -0.005,2.69417 -0.005,2.69418 0.45513,2.11355 0.45514,2.11356 0.93302,1.90973 0.93302,1.90973 1.86631,1.7964 1.86632,1.7964 1.77529,0.91679 1.77529,0.91679 1.80171,0.46275 1.8017,0.46276 0.75071,0.13351 0.75071,0.13352 3.16675,-0.10329 3.16674,-0.1033 z m 37.77683,0.45064 1.52017,-0.28162 1.36341,-0.62605 1.36341,-0.62605 1.33004,-1.14366 1.33005,-1.14366 0.18148,0.46198 0.18147,0.46198 v 0.79995 0.79995 l 0.37536,0.46177 0.37535,0.46177 4.14579,-0.1512 4.14578,-0.15119 -0.22386,-0.47451 -0.22386,-0.47451 -0.20101,-11.58676 -0.20101,-11.58676 -0.29533,-1.02668 -0.29532,-1.02667 -0.86178,-1.7165 -0.86177,-1.7165 -1.36267,-1.18448 -1.36268,-1.18449 -1.80171,-0.82837 -1.8017,-0.82837 -2.25213,-0.33819 -2.25213,-0.33819 -2.45966,0.19475 -2.45966,0.19475 -2.19475,0.59181 -2.19474,0.59181 -1.72664,0.75436 -1.72663,0.75435 0.006,0.47328 0.006,0.47328 0.72741,2.42116 0.7274,2.42115 0.1719,0.2717 0.1719,0.2717 1.87202,-0.82398 1.87203,-0.82398 1.59127,-0.32886 1.59127,-0.32886 2.01214,0.006 2.01214,0.006 1.20113,0.5388 1.20114,0.5388 0.55405,0.60868 0.55405,0.60869 0.40869,1.11942 0.4087,1.11943 0.0132,0.48596 0.0132,0.48596 -2.92777,0.19151 -2.92777,0.19151 -2.18684,0.41803 -2.18683,0.41802 -2.23992,0.9109 -2.23992,0.9109 -1.49126,1.30975 -1.49126,1.30975 -0.87749,1.52389 -0.87748,1.52389 -0.37385,1.57115 -0.37384,1.57115 0.19887,1.65294 0.19887,1.65293 0.75482,1.61595 0.75481,1.61596 1.26097,1.2702 1.26097,1.27021 0.90085,0.46391 0.90085,0.46391 1.35128,0.36634 1.35128,0.36634 1.53551,0.0262 1.5355,0.0262 z m -2.24941,-7.02317 -0.96134,-0.58932 -0.49812,-0.94096 -0.49811,-0.94096 0.13059,-1.53835 0.13059,-1.53834 0.50849,-0.75809 0.50849,-0.75809 1.56583,-0.77511 1.56582,-0.7751 3.23332,-0.18103 3.23332,-0.18103 v 2.52107 2.52108 l -0.6987,1.29281 -0.69869,1.29282 -1.26609,0.87113 -1.2661,0.87113 -2.01398,0.0978 -2.01397,0.0978 z M 145.40505,135.3306 v -24.68106 l -1.57649,0.18498 -1.57649,0.18498 -3.07792,0.003 -3.07791,0.003 v 24.49352 24.49353 h 4.65441 4.6544 z m 17.1162,7.96092 v -16.72013 h -4.65441 -4.6544 v 16.72013 16.72013 h 4.6544 4.65441 z m 48.27315,0.0733 -0.0776,-16.6468 -4.57934,-0.081 -4.57933,-0.081 v 16.72777 16.72777 h 4.65689 4.65688 z m -50.75042,-22.40238 1.31576,-0.62221 0.80096,-1.18233 0.80096,-1.18233 v -1.67139 -1.6714 l -0.85556,-1.09574 -0.85556,-1.09574 -0.94114,-0.5606 -0.94114,-0.5606 -1.50142,0.004 -1.50142,0.004 -1.20114,0.65639 -1.20113,0.65639 -0.67564,1.30762 -0.67564,1.30763 0.002,1.33119 0.002,1.33119 0.7071,1.1411 0.70709,1.14111 1.16814,0.69074 1.16814,0.69074 1.1814,0.001 1.1814,0.002 z m 48.42976,-0.0378 1.33741,-0.66001 0.67075,-0.98612 0.67075,-0.98612 0.19087,-0.9939 0.19088,-0.99389 -0.19838,-1.03295 -0.19837,-1.03294 -0.93062,-1.03539 -0.93061,-1.03539 -0.84137,-0.42502 -0.84136,-0.42502 h -1.62207 -1.62207 l -1.02033,0.66238 -1.02033,0.66237 -0.69511,1.31764 -0.69511,1.31764 0.10969,1.63253 0.1097,1.63253 0.70209,0.96319 0.7021,0.96319 0.93432,0.55654 0.93431,0.55655 1.36272,0.001 1.36273,0.001 z"
       id="path1" /></g></svg>
