<?xml version="1.0" encoding="UTF-8" standalone="no"?>
<!-- Created with Inkscape (http://www.inkscape.org/) -->

<svg
   width="334.92383mm"
   height="262.81174mm"
   viewBox="0 0 334.92383 262.81174"
   version="1.1"
   id="svg1"
   xml:space="preserve"
   xmlns="http://www.w3.org/2000/svg"
   xmlns:svg="http://www.w3.org/2000/svg"><defs
     id="defs1" /><g
     id="layer1"
     transform="translate(70.110674,-16.059549)"><path
       style="fill:#000000;stroke-width:1.11112"
       d="m -69.111734,277.79485 -0.998943,-1.07639 v -1.14474 -1.14473 l 2.004419,-3.24349 2.00442,-3.24348 13.041885,-20.09939 13.041883,-20.0994 4.74209,-7.36646 4.74209,-7.36647 1.592632,-1.28639 1.592631,-1.2864 2.164717,-1.01239 2.164718,-1.01241 25.9577443,-0.27253 25.9577467,-0.27253 4.224132,-0.98622 4.224133,-0.98622 3.586162,-1.21189 3.586163,-1.21189 4.79181,-2.55957 4.791809,-2.55957 2.329342,-1.57053 2.329341,-1.57053 3.216004,-2.77315 3.216003,-2.77315 12.592954,-13.15299 12.592958,-13.15301 3.25735,-2.86459 3.25735,-2.8646 3.44572,-2.35027 3.44571,-2.35028 4.5943,-2.31873 4.59428,-2.31874 3.2343,-1.17039 3.23431,-1.17038 5.49484,-1.30348 5.49486,-1.30348 9.87773,-0.0207 9.87772,-0.0207 5.02389,1.08824 5.02388,1.08824 4.12664,1.36509 4.12662,1.36508 4.66179,2.27622 4.66178,2.2762 4.10544,2.78411 4.10543,2.78411 3.51655,3.04248 3.51655,3.04247 3.71511,4.55874 3.71511,4.55874 10.63078,16.51009 10.63079,16.51008 7.67639,11.85934 7.6764,11.85936 7.35452,11.39428 7.35453,11.39428 6.50269,10.32216 6.50268,10.32217 v 1.65347 1.65345 l -0.91886,0.93015 -0.91885,0.93014 h -40.13149 -40.13149 l -1.56171,-0.53883 -1.5617,-0.53884 -1.92215,-1.32261 -1.92216,-1.32261 -3.33768,-5.46345 -3.33768,-5.46345 -13.08067,-21.16081 -13.08068,-21.16081 -7.86799,-12.78949 -7.86798,-12.7895 -4.92269,-7.97464 -4.92269,-7.97464 -0.71757,-0.27873 -0.71756,-0.27874 -0.81322,0.44057 -0.81322,0.44057 -6.36103,10.13816 -6.36103,10.13817 -5.33588,8.37131 -5.33586,8.37131 -9.363608,14.88233 -9.363604,14.88232 -1.617594,2.09283 -1.617593,2.09282 -3.696573,3.88879 -3.696572,3.88878 -3.675433,2.91436 -3.675433,2.91434 -4.55301,2.83497 -4.553012,2.83496 -4.865286,2.07598 -4.865286,2.07597 -3.905148,1.13951 -3.905147,1.1395 -4.330678,0.7498 -4.330678,0.7498 H -24.628068 -68.11279 Z m 112.250335,-132.87437 -5.05372,-0.92719 -5.06115,-1.63749 -5.06115,-1.63749 -5.163538,-2.52085 -5.16354,-2.52084 -4.017614,-2.80069 -4.0176145,-2.80068 -3.0438822,-2.68781 -3.043881,-2.68781 -2.76608098,-3.09516 -2.76608102,-3.09516 -1.8316538,-2.48572 -1.8316538,-2.4857 -9.1856597,-14.882329 -9.18566,-14.882334 -4.41599,-7.094823 -4.415992,-7.094823 -3.156998,-5.2296 -3.156999,-5.229602 -11.779776,-19.034484 -11.779778,-19.034484 0.0071,-1.428715 0.0071,-1.428714 0.337537,-0.511719 0.337536,-0.511717 1.003512,-0.534696 1.003512,-0.534696 h 38.140123 38.140208 l 2.359779,0.512299 2.359779,0.512298 2.320904,1.929334 2.320904,1.929332 6.058129,9.766527 6.058131,9.766527 10.334755,16.510081 10.334755,16.510082 8.649623,13.952177 8.649624,13.952189 2.449156,3.83684 2.449155,3.83685 h 0.648552 0.648551 l 0.921328,-0.81387 0.921327,-0.81388 4.487861,-7.906239 4.48788,-7.906229 5.06251,-8.603848 5.06252,-8.603845 4.77661,-8.138773 4.77661,-8.138772 3.52432,-5.985022 3.5243,-5.985021 3.01922,-3.781506 3.01922,-3.781505 4.35154,-3.953118 4.35154,-3.953118 3.65554,-2.47746 3.65553,-2.477458 5.51315,-2.728235 5.51316,-2.728235 3.96985,-1.159268 3.96986,-1.159269 3.38101,-0.81268 3.381,-0.81268 42.0316,-0.170055 42.0316,-0.170055 1.00776,0.256037 1.00776,0.256037 0.72126,0.73013 0.72128,0.73013 v 1.392717 1.392718 l -5.45443,8.92193 -5.45443,8.921932 -7.7082,12.556963 -7.70819,12.556964 -1.24738,2.092827 -1.24737,2.092827 -2.13606,3.488045 -2.13607,3.488041 -1.59229,1.937846 -1.59229,1.937846 -2.65081,1.317667 -2.65082,1.317667 -24.34974,0.275635 -24.34975,0.275646 -4.47662,1.01228 -4.47662,1.012279 -3.33367,1.204749 -3.33368,1.204759 -3.49604,1.82709 -3.49603,1.827075 -3.29079,2.222019 -3.2908,2.222031 -3.24257,2.938817 -3.24258,2.938807 -8.86622,9.81991 -8.86622,9.81993 -4.53526,4.46237 -4.53526,4.46236 -3.44572,2.53334 -3.44571,2.53335 -2.30037,1.46784 -2.30037,1.46783 -4.361352,2.0611 -4.361354,2.06111 -3.503625,1.19711 -3.503624,1.19711 -4.536384,0.98175 -4.536386,0.98174 -8.729154,0.19588 -8.729153,0.19587 z"
       id="path1" /></g></svg>
