<svg xmlns="http://www.w3.org/2000/svg" viewBox="0 0 122 118"><path d="M 80 55 80 64 79 65 79 67 80 68 80 71 81 72 83 72 84 73 84 55 Z" fill="black"/><path d="M 78 26 77 27 76 27 76 32 78 32 79 33 79 51 95 51 96 50 97 50 98 49 101 49 102 50 103 50 104 51 104 52 105 53 105 59 102 62 98 62 95 59 95 58 89 58 89 61 90 62 90 63 92 65 93 65 95 67 105 67 106 66 107 66 110 63 110 62 111 61 111 58 112 57 112 54 111 53 111 50 110 49 110 48 108 46 107 46 106 45 104 45 103 44 97 44 96 43 96 39 97 38 110 38 111 37 111 33 110 32 92 32 91 33 91 39 90 40 90 48 89 49 87 49 86 48 86 26 Z" fill="black"/><path d="M 40 24 39 25 39 27 38 28 38 29 36 31 35 31 34 32 32 32 31 33 28 33 27 34 23 34 22 35 20 35 19 36 18 36 15 39 14 39 13 40 13 41 11 43 11 44 10 45 10 47 9 48 9 51 8 52 8 54 9 55 9 59 10 60 10 61 11 62 11 63 12 64 12 65 16 69 16 71 15 72 14 72 13 73 12 73 10 75 10 76 9 77 9 79 8 80 8 81 9 82 9 84 10 85 10 86 12 88 13 88 14 89 15 89 16 90 25 90 26 91 29 91 30 92 32 92 37 97 37 102 40 102 41 101 43 101 46 98 46 97 47 96 47 94 48 93 48 92 47 91 47 89 46 88 46 87 44 85 43 85 42 84 39 84 38 83 33 83 32 82 28 82 27 81 26 81 25 80 24 80 23 79 22 79 19 76 19 73 20 72 24 72 25 73 31 73 32 72 35 72 36 71 37 71 38 70 39 70 45 64 45 63 46 62 46 60 47 59 47 56 48 55 48 52 47 51 47 47 46 46 46 45 45 44 45 40 46 39 46 38 47 37 47 36 48 35 48 31 47 30 47 29 43 25 41 25 Z" fill="black"/></svg>