<?xml version="1.0" encoding="UTF-8" standalone="no"?>
<!-- Created with Inkscape (http://www.inkscape.org/) -->

<svg
   width="102.46338mm"
   height="101.69695mm"
   viewBox="0 0 102.46338 101.69695"
   version="1.1"
   id="svg1"
   xml:space="preserve"
   xmlns="http://www.w3.org/2000/svg"
   xmlns:svg="http://www.w3.org/2000/svg"><defs
     id="defs1" /><g
     id="layer1"
     transform="translate(-54.388299,-85.611984)"><path
       style="fill:#000000;fill-opacity:1"
       d="m 90.992446,186.94889 c -1.235655,-0.38782 -3.935291,-0.99371 -2.343468,-2.65108 0.549316,-1.73141 2.351641,0.99058 3.709962,0.59943 1.637778,0.30906 4.293191,0.23466 4.714838,-1.70423 -0.172939,-2.59928 -3.565436,-2.39875 -5.413992,-3.20735 -1.949074,-0.61467 -3.76873,-2.28824 -3.2531,-4.51123 0.307946,-3.00605 3.867155,-3.96289 6.451172,-3.63896 1.499648,0.0695 3.297188,0.54857 4.392488,1.42219 -0.102364,2.07695 -1.409973,2.20473 -2.897047,1.07878 -1.763269,-0.35986 -4.81892,-0.78725 -5.237613,1.59375 0.747823,2.41552 3.901916,2.03559 5.821794,2.99767 2.299051,0.67466 3.68392,3.24234 2.733033,5.47449 -1.525918,3.21173 -5.702536,3.21125 -8.678067,2.54654 z m 23.150394,-0.0312 c -3.96195,-1.01612 -6.34279,-5.43557 -5.31492,-9.34276 0.82515,-3.76007 4.71862,-6.13809 8.45728,-5.74154 4.57133,-0.32827 8.60548,4.03903 7.98979,8.57586 -0.3961,4.36137 -4.86077,7.40455 -9.08487,6.83006 -0.7217,0.0692 -1.37443,-0.066 -2.04728,-0.32162 z m 5.16028,-2.45938 c 3.87945,-1.47316 4.2109,-7.58307 0.64665,-9.60597 -2.85904,-1.76981 -7.31733,-0.53272 -8.28012,2.89023 -1.28749,3.50666 1.77311,7.78024 5.59771,7.19893 0.74734,0.0386 1.3891,-0.10108 2.03576,-0.48319 z m -64.762028,-4.92066 c 0,-2.51817 0,-5.03633 0,-7.5545 2.223186,-0.36842 3.325384,0.35312 2.767609,2.68867 0.02391,4.14008 0.04782,8.28015 0.07173,12.42023 -2.234835,0.42322 -3.437655,-0.18558 -2.839334,-2.59552 -10e-7,-1.65296 -3e-6,-3.30592 -5e-6,-4.95888 z m 9.8427,1.13066 c 0,-2.14128 0,-4.28255 0,-6.42383 -1.433257,-0.21991 -3.720184,0.41385 -4.671112,-0.28839 -0.822737,-2.62962 1.708907,-1.90485 3.460688,-1.95995 2.850247,0 5.700495,0 8.550743,0 0.751238,2.53979 -1.155148,2.42196 -3.117315,2.24834 -2.432156,-0.62401 -1.012048,2.60425 -1.386972,4.03747 0,2.93673 0,5.87346 0,8.81019 -2.234536,0.42402 -3.433343,-0.18769 -2.836032,-2.59552 0,-1.2761 0,-2.55221 0,-3.82831 z m 9.8427,-1.14135 c 0,-2.52173 0,-5.04345 0,-7.56518 3.143104,0.34627 6.565108,-0.52648 9.49391,0.84549 2.999771,1.47918 3.100584,6.33391 0.293283,8.06731 -2.051105,1.37489 -4.698125,0.70693 -7.034609,0.99826 -0.03053,1.73979 -0.06107,3.47957 -0.0916,5.21936 -2.218231,0.46608 -3.20229,-0.30202 -2.660954,-2.59552 -1e-5,-1.65657 -2e-5,-3.31315 -3e-5,-4.96972 z m 7.503734,-0.34416 c 2.2126,-0.71579 1.878627,-4.39243 -0.433092,-4.7726 -1.269524,0.19201 -4.05605,-0.89434 -4.401278,0.36848 0.212379,1.47226 -0.409768,3.77904 0.288391,4.76551 1.482,-0.18301 3.210597,0.40042 4.545979,-0.36139 z m 46.754584,0.40149 c 0.0145,-2.50262 0.0289,-5.00523 0.0434,-7.50785 1.92971,-0.43543 3.39721,0.12704 4.28253,1.9464 2.31499,2.90564 4.61501,5.82306 6.89477,8.75643 0.0293,-3.59435 0.0585,-7.18871 0.0878,-10.78306 2.2186,-0.46517 3.20738,0.29947 2.66476,2.59552 0,4.16682 0,8.33365 0,12.50048 -1.91248,0.36545 -3.31912,-0.29899 -4.18666,-2.06102 -2.32358,-2.96308 -4.63624,-5.93479 -6.99064,-8.87354 0,3.64478 0,7.28957 0,10.93435 -2.23728,0.42321 -3.43658,-0.18557 -2.82434,-2.59547 0.009,-1.63741 0.0189,-3.27483 0.0284,-4.91224 z m 17.93719,7.3874 c -0.13396,-4.93722 -0.009,-9.93486 -0.0436,-14.89525 3.36431,-0.0283 6.72863,-0.0567 10.09294,-0.085 0.76316,2.57161 -1.19832,2.41858 -3.1723,2.25305 -1.35695,0.41691 -4.58568,-1.03796 -4.16802,1.15356 -0.41832,2.23727 0.17161,3.46628 2.59552,2.86133 1.32741,0.40648 4.4882,-1.02042 4.0775,1.12418 0.36628,2.14156 -2.83212,0.71845 -4.20168,1.12417 -2.35554,-0.61682 -2.85133,0.62612 -2.47134,2.74482 -0.77301,2.55313 2.25093,1.3093 3.74908,1.59126 1.26894,0.41408 4.38922,-1.02318 3.92489,1.12417 0.35202,2.1687 -2.94093,0.69243 -4.32586,1.12417 -1.99038,-0.0798 -4.19326,0.16015 -6.05713,-0.12046 z M 85.654036,145.56436 c 15.706254,-9.09637 31.571834,-18.02803 47.295004,-27.04661 0,9.10043 0,18.20085 0,27.30128 -15.87622,-0.003 -31.75244,-0.007 -47.628654,-0.01 l 0.232562,-0.17054 z M 76.728874,134.9157 c 0,-2.13555 0,-4.2711 0,-6.40665 5.382905,-2.99027 10.701634,-6.21346 15.966302,-9.39748 2.337988,-1.60422 2.888397,-4.9958 1.001523,-7.15182 -3.389443,-2.91342 -7.626224,-4.70777 -11.37571,-7.13886 -1.862542,-1.0776 -3.686624,-2.22331 -5.592115,-3.22484 0.05215,-4.183098 -0.103989,-8.57448 0.07782,-12.627917 11.933172,7.331498 23.992236,14.586027 35.915116,21.950237 1.73551,1.2532 3.26641,3.39556 2.20683,5.58187 -1.47665,2.92029 -5.04916,3.87218 -7.55586,5.7692 -10.239902,6.29282 -20.39323,12.86513 -30.643866,19.05291 -1.3e-5,-2.13555 -2.7e-5,-4.2711 -4e-5,-6.40665 z m 55.052396,-23.51643 c -15.03978,-8.67544 -30.16896,-17.195886 -45.293104,-25.72335 15.461124,0.0097 30.981474,-0.127933 46.405684,-0.02639 0.10546,8.748388 -0.038,17.60223 -0.0282,26.39113 -0.36146,-0.2138 -0.72292,-0.42759 -1.08438,-0.64139 z"
       id="path1" /></g></svg>
